<svg xmlns="http://www.w3.org/2000/svg" viewBox="0 0 192 192" width="192" height="192">
  <defs>
    <linearGradient id="g" x1="0" y1="0" x2="1" y2="1">
      <stop offset="0%" stop-color="#18a999"/>
      <stop offset="100%" stop-color="#0b6b5e"/>
    </linearGradient>
  </defs>
  <rect width="192" height="192" rx="40" fill="url(#g)"/>
  <!-- Stylised tooth -->
  <path d="M62 46c-14 0-26 12-26 28 0 18 8 26 14 38 6 12 8 32 16 32 6 0 8-14 12-22 4-8 10-8 14 0 4 8 6 22 12 22 8 0 10-20 16-32 6-12 14-20 14-38 0-16-12-28-26-28-10 0-16 6-22 6s-12-6-24-6z"
    fill="#ffffff" opacity="0.96"/>
  <text x="96" y="170" text-anchor="middle" font-family="Segoe UI, Inter, system-ui, sans-serif" font-size="22" font-weight="700" fill="#ffffff">OralPath</text>
</svg>
